<mxfile host="app.diagrams.net" modified="2024-07-09T05:01:27.124Z" agent="Mozilla/5.0 (Windows NT 10.0; Win64; x64) AppleWebKit/537.36 (KHTML, like Gecko) Chrome/127.0.0.0 Safari/537.36 Edg/127.0.0.0" etag="IzO5Uf806-wr7lb2Vfsy" version="24.6.4" type="github">
  <diagram name="第 1 页" id="5CVzoEzKpm7zy-Mx8cE7">
    <mxGraphModel dx="1622" dy="925" grid="1" gridSize="10" guides="1" tooltips="1" connect="1" arrows="1" fold="1" page="1" pageScale="1" pageWidth="827" pageHeight="1169" math="1" shadow="0">
      <root>
        <mxCell id="0" />
        <mxCell id="1" parent="0" />
        <mxCell id="D6YGZdasB_IZF6PoJQrm-1" value="&lt;font face=&quot;Times New Roman&quot; style=&quot;font-size: 24px;&quot;&gt;m&lt;/font&gt;" style="text;strokeColor=none;align=center;fillColor=none;html=1;verticalAlign=middle;whiteSpace=wrap;rounded=0;" parent="1" vertex="1">
          <mxGeometry x="170" y="290" width="60" height="30" as="geometry" />
        </mxCell>
        <mxCell id="D6YGZdasB_IZF6PoJQrm-2" value="" style="endArrow=classic;html=1;rounded=0;exitX=0.5;exitY=1;exitDx=0;exitDy=0;" parent="1" edge="1">
          <mxGeometry width="50" height="50" relative="1" as="geometry">
            <mxPoint x="200" y="320" as="sourcePoint" />
            <mxPoint x="200" y="350" as="targetPoint" />
          </mxGeometry>
        </mxCell>
        <mxCell id="D6YGZdasB_IZF6PoJQrm-4" value="&lt;font face=&quot;Times New Roman&quot; style=&quot;font-size: 24px;&quot;&gt;C&lt;/font&gt;" style="rounded=0;whiteSpace=wrap;html=1;fillColor=#66FFFF;" parent="1" vertex="1">
          <mxGeometry x="110" y="350" width="170" height="110" as="geometry" />
        </mxCell>
        <mxCell id="D6YGZdasB_IZF6PoJQrm-19" value="" style="whiteSpace=wrap;html=1;aspect=fixed;fillColor=#66FFFF;" parent="1" vertex="1">
          <mxGeometry x="330" y="450" width="10" height="10" as="geometry" />
        </mxCell>
        <mxCell id="D6YGZdasB_IZF6PoJQrm-34" value="" style="endArrow=classic;html=1;rounded=0;exitX=0.529;exitY=1.009;exitDx=0;exitDy=0;exitPerimeter=0;" parent="1" edge="1">
          <mxGeometry width="50" height="50" relative="1" as="geometry">
            <mxPoint x="199.93" y="460" as="sourcePoint" />
            <mxPoint x="200" y="530" as="targetPoint" />
          </mxGeometry>
        </mxCell>
        <mxCell id="D6YGZdasB_IZF6PoJQrm-35" value="&lt;font face=&quot;Times New Roman&quot; style=&quot;font-size: 24px;&quot;&gt;φ&lt;/font&gt;" style="text;strokeColor=none;align=center;fillColor=none;html=1;verticalAlign=middle;whiteSpace=wrap;rounded=0;" parent="1" vertex="1">
          <mxGeometry x="190" y="480" width="60" height="30" as="geometry" />
        </mxCell>
        <mxCell id="D6YGZdasB_IZF6PoJQrm-84" value="" style="rounded=0;whiteSpace=wrap;html=1;" parent="1" vertex="1">
          <mxGeometry x="330" y="350" width="10" height="100" as="geometry" />
        </mxCell>
        <mxCell id="D6YGZdasB_IZF6PoJQrm-85" style="edgeStyle=orthogonalEdgeStyle;rounded=0;orthogonalLoop=1;jettySize=auto;html=1;exitX=0.5;exitY=1;exitDx=0;exitDy=0;" parent="1" source="D6YGZdasB_IZF6PoJQrm-84" target="D6YGZdasB_IZF6PoJQrm-84" edge="1">
          <mxGeometry relative="1" as="geometry" />
        </mxCell>
        <mxCell id="D6YGZdasB_IZF6PoJQrm-86" value="" style="endArrow=none;dashed=1;html=1;rounded=0;" parent="1" edge="1">
          <mxGeometry width="50" height="50" relative="1" as="geometry">
            <mxPoint x="320" y="360" as="sourcePoint" />
            <mxPoint x="350" y="360" as="targetPoint" />
          </mxGeometry>
        </mxCell>
        <mxCell id="D6YGZdasB_IZF6PoJQrm-87" value="" style="rounded=0;whiteSpace=wrap;html=1;" parent="1" vertex="1">
          <mxGeometry x="330" y="530" width="10" height="50" as="geometry" />
        </mxCell>
        <mxCell id="D6YGZdasB_IZF6PoJQrm-88" value="" style="endArrow=none;dashed=1;html=1;rounded=0;" parent="1" edge="1">
          <mxGeometry width="50" height="50" relative="1" as="geometry">
            <mxPoint x="320" y="540" as="sourcePoint" />
            <mxPoint x="350" y="540" as="targetPoint" />
          </mxGeometry>
        </mxCell>
        <mxCell id="D6YGZdasB_IZF6PoJQrm-90" value="" style="rounded=0;whiteSpace=wrap;html=1;fillColor=#66FFFF;" parent="1" vertex="1">
          <mxGeometry x="330" y="580" width="10" height="60" as="geometry" />
        </mxCell>
        <mxCell id="D6YGZdasB_IZF6PoJQrm-91" value="&lt;span style=&quot;font-family: &amp;quot;Times New Roman&amp;quot;; font-size: 24px;&quot;&gt;φ(&lt;/span&gt;&lt;font face=&quot;Times New Roman&quot; style=&quot;font-size: 24px;&quot;&gt;C)&lt;/font&gt;" style="rounded=0;whiteSpace=wrap;html=1;fillColor=#66FFFF;" parent="1" vertex="1">
          <mxGeometry x="115" y="530" width="170" height="110" as="geometry" />
        </mxCell>
        <mxCell id="D6YGZdasB_IZF6PoJQrm-93" value="" style="endArrow=classic;html=1;rounded=0;" parent="1" edge="1">
          <mxGeometry width="50" height="50" relative="1" as="geometry">
            <mxPoint x="199.76" y="640" as="sourcePoint" />
            <mxPoint x="410" y="760" as="targetPoint" />
            <Array as="points">
              <mxPoint x="199.76" y="690" />
              <mxPoint x="200" y="750" />
              <mxPoint x="200" y="760" />
            </Array>
          </mxGeometry>
        </mxCell>
        <mxCell id="D6YGZdasB_IZF6PoJQrm-94" value="" style="whiteSpace=wrap;html=1;aspect=fixed;fillColor=#33FF99;" parent="1" vertex="1">
          <mxGeometry x="413" y="650" width="210" height="210" as="geometry" />
        </mxCell>
        <mxCell id="D6YGZdasB_IZF6PoJQrm-95" value="&lt;font face=&quot;Times New Roman&quot;&gt;&lt;span style=&quot;font-size: 24px;&quot;&gt;φ(&lt;/span&gt;&lt;font style=&quot;font-size: 24px;&quot;&gt;C)&lt;/font&gt;&lt;/font&gt;" style="rounded=0;whiteSpace=wrap;html=1;fillColor=#66FFFF;" parent="1" vertex="1">
          <mxGeometry x="420" y="700" width="170" height="110" as="geometry" />
        </mxCell>
        <mxCell id="D6YGZdasB_IZF6PoJQrm-97" value="" style="rounded=0;whiteSpace=wrap;html=1;" parent="1" vertex="1">
          <mxGeometry x="603" y="700" width="10" height="50" as="geometry" />
        </mxCell>
        <mxCell id="D6YGZdasB_IZF6PoJQrm-98" value="" style="endArrow=none;dashed=1;html=1;rounded=0;" parent="1" edge="1">
          <mxGeometry width="50" height="50" relative="1" as="geometry">
            <mxPoint x="593" y="710" as="sourcePoint" />
            <mxPoint x="623" y="710" as="targetPoint" />
          </mxGeometry>
        </mxCell>
        <mxCell id="D6YGZdasB_IZF6PoJQrm-99" value="" style="rounded=0;whiteSpace=wrap;html=1;fillColor=#66FFFF;" parent="1" vertex="1">
          <mxGeometry x="603" y="750" width="10" height="60" as="geometry" />
        </mxCell>
        <mxCell id="D6YGZdasB_IZF6PoJQrm-101" value="" style="whiteSpace=wrap;html=1;aspect=fixed;fillColor=#33FF99;" parent="1" vertex="1">
          <mxGeometry x="603" y="630" width="10" height="10" as="geometry" />
        </mxCell>
        <mxCell id="D6YGZdasB_IZF6PoJQrm-102" value="" style="rounded=0;whiteSpace=wrap;html=1;" parent="1" vertex="1">
          <mxGeometry x="603" y="530" width="10" height="100" as="geometry" />
        </mxCell>
        <mxCell id="D6YGZdasB_IZF6PoJQrm-103" style="edgeStyle=orthogonalEdgeStyle;rounded=0;orthogonalLoop=1;jettySize=auto;html=1;exitX=0.5;exitY=1;exitDx=0;exitDy=0;" parent="1" source="D6YGZdasB_IZF6PoJQrm-102" target="D6YGZdasB_IZF6PoJQrm-102" edge="1">
          <mxGeometry relative="1" as="geometry" />
        </mxCell>
        <mxCell id="D6YGZdasB_IZF6PoJQrm-104" value="" style="endArrow=none;dashed=1;html=1;rounded=0;" parent="1" edge="1">
          <mxGeometry width="50" height="50" relative="1" as="geometry">
            <mxPoint x="593" y="540" as="sourcePoint" />
            <mxPoint x="623" y="540" as="targetPoint" />
          </mxGeometry>
        </mxCell>
        <mxCell id="9X8vgbvS7JHYh_iBrQfc-1" value="" style="endArrow=classic;html=1;rounded=0;" parent="1" edge="1">
          <mxGeometry width="50" height="50" relative="1" as="geometry">
            <mxPoint x="623" y="760" as="sourcePoint" />
            <mxPoint x="810" y="760" as="targetPoint" />
          </mxGeometry>
        </mxCell>
        <mxCell id="9X8vgbvS7JHYh_iBrQfc-2" value="&lt;font style=&quot;font-size: 24px;&quot; face=&quot;Times New Roman&quot;&gt;bootstrap&lt;/font&gt;" style="edgeLabel;html=1;align=center;verticalAlign=middle;resizable=0;points=[];" parent="9X8vgbvS7JHYh_iBrQfc-1" vertex="1" connectable="0">
          <mxGeometry x="0.0677" y="2" relative="1" as="geometry">
            <mxPoint y="-18" as="offset" />
          </mxGeometry>
        </mxCell>
        <mxCell id="9X8vgbvS7JHYh_iBrQfc-3" value="&lt;font face=&quot;Times New Roman&quot; style=&quot;font-size: 24px;&quot;&gt;φ（C）&lt;/font&gt;" style="whiteSpace=wrap;html=1;aspect=fixed;fillColor=#33FF99;" parent="1" vertex="1">
          <mxGeometry x="810" y="650" width="210" height="210" as="geometry" />
        </mxCell>
        <mxCell id="9X8vgbvS7JHYh_iBrQfc-4" value="" style="rounded=0;whiteSpace=wrap;html=1;" parent="1" vertex="1">
          <mxGeometry x="1010" y="530" width="10" height="80" as="geometry" />
        </mxCell>
        <mxCell id="9X8vgbvS7JHYh_iBrQfc-6" value="" style="rounded=0;whiteSpace=wrap;html=1;fillColor=#33FF99;" parent="1" vertex="1">
          <mxGeometry x="1010" y="610" width="10" height="30" as="geometry" />
        </mxCell>
        <mxCell id="9X8vgbvS7JHYh_iBrQfc-7" value="" style="endArrow=none;dashed=1;html=1;rounded=0;" parent="1" edge="1">
          <mxGeometry width="50" height="50" relative="1" as="geometry">
            <mxPoint x="1000" y="540" as="sourcePoint" />
            <mxPoint x="1030" y="540" as="targetPoint" />
          </mxGeometry>
        </mxCell>
        <mxCell id="9X8vgbvS7JHYh_iBrQfc-9" value="" style="endArrow=classic;html=1;rounded=0;" parent="1" edge="1">
          <mxGeometry width="50" height="50" relative="1" as="geometry">
            <mxPoint x="1020" y="760" as="sourcePoint" />
            <mxPoint x="1110" y="760" as="targetPoint" />
          </mxGeometry>
        </mxCell>
        <mxCell id="9X8vgbvS7JHYh_iBrQfc-10" value="" style="endArrow=none;dashed=1;html=1;dashPattern=1 3;strokeWidth=2;rounded=0;" parent="1" edge="1">
          <mxGeometry width="50" height="50" relative="1" as="geometry">
            <mxPoint x="1130" y="760" as="sourcePoint" />
            <mxPoint x="1210" y="760" as="targetPoint" />
          </mxGeometry>
        </mxCell>
        <mxCell id="IJVGp-ggUPbxEL1rCusj-1" value="&lt;div&gt;&lt;br&gt;&lt;/div&gt;" style="rounded=0;whiteSpace=wrap;html=1;" vertex="1" parent="1">
          <mxGeometry x="900" y="330" width="190" height="110" as="geometry" />
        </mxCell>
        <mxCell id="IJVGp-ggUPbxEL1rCusj-2" value="" style="shape=image;verticalLabelPosition=bottom;labelBackgroundColor=default;verticalAlign=top;aspect=fixed;imageAspect=0;image=data:image/png,iVBORw0KGgoAAAANSUhEUgAAALAAAABRCAIAAAD9zbsuAAANFElEQVR4Ae2bf0xV5R/HP2urzc1SgdTQiYw/ghxzlkO5XKgM0aH9GI5fFqhjK0UEuYxo02E/rNUCjWp0F1FhyzCSJtfhcqCDFTqdotitmSVGLmTcH+f+PL/uOSfG59uzc+9F8OuBC12f5w92zvPjc57n/Xnd5/mc5zmAQhNVQKUAqK7pJVVAoUBQCPwUoED4yUFvKBCUAT8FKBB+ctAbCgRlwE8BCoSfHPSGAkEZ8FOAAuEnB72hQFAG/BSgQPjJQW8oEJQBPwUoEH5y0BsKBGXATwEKhJ8c9IYCQRnwU4AC4ScHvaFAUAb8FKBA+MlBbygQlAE/BSgQfnLQm5ACIUmSzWZz3G1iGIY6bKoVCCkQDMOAhrRq1Sqe56dakXvcfqiBWL16dXJysk6nS0tLI2zo/k1YlPxvio6OJnUAwGAwSJJ0jztsqocfUiAURREEwePx2Gy25ORkdHZiYuLQ0JAwmjweD1bwer0ul8tut3d1de3evRtrvvPOO1MtB7UfaiBQcYZh5s2bh27Ozc0VRXEcTzAMs2zZMgBoaGgYpxotmhQFpgeIU6dOkbXg7bffHn8ksizn5OQAQEtLy/g1aal2BaYBCFmW9+/fT4Do7e2dcBjl5eUAcO3atQlr0goaFZgGIFiWzcrKQiDS0tIsFkvAGAYGBkwmkzp+LC8vj4qKcjqdATXp7aQrMA1AMAyzePFiBKK0tDQggBBFMTMzEwC8Xi+Olud5g8GQkpJCciZdBWqQKDANQLS2tpL1wmg0kq7gxU8//QQAaWlpZIbgeT4nJycvL48A4XK5rl+/vm/fvq6uLofDQSxwHDc4ONjW1lZSUlJfX3/69GlBEEjpOBcej8dqtR4/fnzXrl11dXWnTp3iOG6c+mFcFGogZFkuLS0lQHR1danFlWXZYDAAQHV1tTpfFEWfz4c5DMMYjcYFCxagkZUrV5rN5hGzNputuLiY5GNpbm7u+K51u90mkyk3N/eRRx4hvQKAvLw8m82m7sM9ch1qIFiWTUpKQukjIyPNZvPff/89ODh45cqVtra2PXv2YFF3d/ftHPDll18CwJ49e3744YclS5YAQGZmZmdnZ0ZGRkxMTEFBwXfffTc8PFxWVoamDh48KMvymNZsNtvBgwexmsFgaG1ttVgszc3N2La8vDxgORvTSJhlhhqImzdvogPG+RsXF0dWhwC5WZZ94YUX1q1bx4+m1NRUtLNw4cI1a9a4XC5S/+zZs1i0efNmlmVJPrmwWq24ObZixYr+/n5coTiO27hxIzZct26d2iBpOOEFzme3o3DC5tNbIdRAfP755wQF3LDG7WqdThcZGYlFhYWFt/tpnjt3DgAOHDigKIrVak1MTCTW/vrrL7WUV69exSK9Xh/sV7vdHhcXhxXMZjNpaLfb586di/kGg8HtdpOiCS9EUayqqqqsrCwpKVm7du1rr702YZMZWCGkQMiy/MorrxAXdnZ24ka1IAgcxzmdzoyMDAD47LPPbqfUW2+9NW/ePHThjz/+SEydO3cuoMnhw4exNDs72+PxqEs9Hg/phsFgINGJoig2m23FihUAEB8f39zcrG414bUgCPrRhM89efLkhE1mYIWQAsGy7BNPPIF6xcbGBvhJluXi4uI5c+b09/erlfrll186Ojp8Pp8sy0ajsaamBheU9957D03l5+cHzygVFRVYWlJSEnBG2tLSgkUAcPbsWfWzZFk2m81Hjx612+1qUNR1xrnmeR5npkWLFgWMbpxWM6oopEBYLBbiiYKCggDFPR5PcnJyZmamOoDweDxFRUWJiYnDw8OKosiyjIu9KIqbNm1Ca7W1tQGaSpL05JNPYumhQ4fUy7nX633xxRex6Nlnnw1gJcDOXdzimpiVlXWHb7x38YgpbRJSIL7//nsCRPAOhMfjWblyZWlpqRqUnp6e+++/f+/evWqnKoridrtjYmLQ2pkzZwI0GhoamjVrFgDMmjVrcHBQXWq322NjY7HhpB+fiqK4ZcsWfAlSP/Q/dB06IGRZfvXVVwkQfX19wTK53W71G4EkScXFxfPnz1fHfdjq4sWLaCo+Pj449GtsbMTSjIwM9XyjKMrp06dJH06cOBHcBy05Lpdr6dKlIyHI/xt/aHno5LYNHRAsy6anp6MzkpKS7mSJvXDhwoIFC15++eXg6beurg5N5eXlBQQQPM9v3boVS8lRqtfrRdTU52rBbx9jiut2u1tbW51OJ+5xsSzb29vb0dHR398f0LHLly/jc2/evImmWJYdGBi4evVqQM0xHzQTMkMHBMMwDz30EOq1e/du9bowphA8zz///PMAEByuC4JQUFCApj788MOA5na7fdGiRViKB6Qej+fxxx/PycmRJOnTTz/FotjY2HFOy3w+H4YXDMPodDoAWLJkyRdffHHhwoX4+Hi9Xo9LUmNjo9rTBw4cAIBVq1YJgiDL8sDAwObNm+ePptra2gmHHDCQabkNHRCdnZ3oCQA4evTo+KNlWbayshIANm3aFDyXuN3uhIQEAHjggQd+/vnnAFPffPMNPuiZZ57BomPHjgEARi3kZTUxMfF2QPh8voaGhl27djkcjoKCgsrKSofDgTYXL15sNBq9Xq8gCOvXr4+KiiLvKaIoIsE7duyQJOnMmTOPPvpoe3s7fvGVkpISvLQF9Hwm3IYIiJGQcN++fQSI33777XaDH4nL+vv78QMIADh8+HBwzevXr6Op9PT0AJVFUSSTR01NjaIoeDa2dOnSoaEhjEaXL18OAHPnzh1zyeB5vqioCAC2bduG+2Bms7mvrw+faDKZSH/w2KWsrAx/+larFTe1enp66uvr77vvvt7eXo7jMPjduXOn+o1GFMWvv/46IFImlqfxYmqBcDgcN27c6Onp+fbbb/HXAwAJCQktLS02m81ut1ssFvtounTpUktLS21tbVVVVXx8PKq/evVq9WEmkYlsd77xxhvBAURhYSE27+vrw986ANTV1ZGazc3NWKGoqEjNE8/zdrs9OzsbP+gd2aQ6duxYdnY2z/Mff/wxAERFRamnK4yR169fj9FJd3c3mt24cWNERAT2XBTF/Pz84uJinI0kSfrzzz9Pnjy5bds2AJiBi8gUAsFx3HPPPYca3d3f6upq4kVCg/q4YcyP6sjL7fvvv799+3Y8O1U7kmVZo9GIXaqoqPjqq68++eSTnTt3rlmz5uGHH46NjTUajVhfEASWZSVJys/PxyNQ0h9RFDds2AAAhYWFGGxWV1ejzaeffrqmpmZgYAAr+3w+0qqpqSkiImLt2rUjS9jChQvvLSAsFstHH31kMBgqKirKy8srghIWBWX/L6OsrOyPP/4gHJALSZIwdtuwYcOYc74kSW+++SauC0lJSfX19Woa0I7b7b548eL27dv1ev3s2bNjYmJGrFVUVJhMJoZhyKcYWJnjONy6OHLkCOnGjRs35syZAwD79++XJEkURdwKq6ys3Lp16+zZs6Ojo2tra9Uhp6IokiQJguD1egFg+fLl9xYQHlVyOp2+oMTzfFCeXwZRP+BCFEWGYdSzfUAFSZLcbrfFYnE4HAHeVdfked7lct26dYthGJfLdTuD165dwwB2YGCANCdnJa2trYqi2O12nB4aGxtFUezo6ACABx98EAMXURTVAQTP8wCQmpp6bwFBtPuvXxw6dAgAkpKSiFMlSdqxYwcAvPTSSxhAYPgJAFarVVEUr9eLkVBbW5uiKJWVlVlZWSSEpED8h5EQRRFfgA0GAwkFfv3118ceeywyMvL8+fM4NoxzExISkA+WZXHC6O7uliQpLi5O/XpCgCCEzRyBpjConDmD1NITjuPIP5nhwnfp0qX09PTIyMgjR47gnO/z+aqqqgBgy5Yt+CxyhHb58uWmpqaUlBR1HEOAoEuGFtdMT9vz58/jb33v3r0RERF6vR6Xj87OTuJOjuOeeuop9REGbolGR0fHxMQsW7bsgw8+UIcyFIjp8eWkPPXdd98FAL1e73Q629vbTSbT8PBw8Ie7v//++5UrV8iaghtit27damtrC/60ggIxKa6ZBiOSJOH/FL3++utqZ2vsCgVCo4DT1pzjOPyn5KampknphCRJLMviyUhqaqrD4cAgdFKMT4oRGlSOLaMkSe3t7Q0NDRhAtLS0HD9+nLw3jt3mDnJPnDih0+lS/00pKSk6nS5g8+oOzExhFQrE2OJyHEf+3xCZUP934dht7iBXlmWO40RRFARBHE3B4cgdmJnCKhSIscUd+b7LO5qY0eR0Omfa3D52vzXnUiA0SxheBigQ4eVPzaOhQGiWMLwMUCDCy5+aR0OB0CxheBmgQISXPzWPhgKhWcLwMkCBCC9/ah4NBUKzhOFlgAIRXv7UPBoKhGYJw8sABSK8/Kl5NBQIzRKGlwEKRHj5U/NoKBCaJQwvAxSI8PKn5tFQIDRLGF4GKBDh5U/No6FAaJYwvAxQIMLLn5pHQ4HQLGF4GaBAhJc/NY/mH2iHVFhCFjBNAAAAAElFTkSuQmCC;" vertex="1" parent="1">
          <mxGeometry x="982" y="340" width="88" height="40.5" as="geometry" />
        </mxCell>
        <mxCell id="IJVGp-ggUPbxEL1rCusj-3" value="&lt;font face=&quot;Times New Roman&quot; style=&quot;font-size: 24px;&quot;&gt;=&lt;/font&gt;" style="text;html=1;align=center;verticalAlign=middle;whiteSpace=wrap;rounded=0;" vertex="1" parent="1">
          <mxGeometry x="940" y="345.25" width="60" height="30" as="geometry" />
        </mxCell>
        <mxCell id="IJVGp-ggUPbxEL1rCusj-4" value="" style="whiteSpace=wrap;html=1;aspect=fixed;fillColor=#66FFFF;strokeColor=#6c8ebf;" vertex="1" parent="1">
          <mxGeometry x="930" y="350" width="20" height="20" as="geometry" />
        </mxCell>
        <mxCell id="IJVGp-ggUPbxEL1rCusj-5" value="" style="rounded=0;whiteSpace=wrap;html=1;fillColor=#33FF99;" vertex="1" parent="1">
          <mxGeometry x="930" y="390" width="20" height="20" as="geometry" />
        </mxCell>
        <mxCell id="IJVGp-ggUPbxEL1rCusj-6" value="&lt;font face=&quot;Times New Roman&quot; style=&quot;font-size: 24px;&quot;&gt;=&lt;/font&gt;" style="text;html=1;align=center;verticalAlign=middle;whiteSpace=wrap;rounded=0;" vertex="1" parent="1">
          <mxGeometry x="940" y="385" width="60" height="30" as="geometry" />
        </mxCell>
        <mxCell id="IJVGp-ggUPbxEL1rCusj-7" value="" style="shape=image;verticalLabelPosition=bottom;labelBackgroundColor=default;verticalAlign=top;aspect=fixed;imageAspect=0;image=data:image/png,iVBORw0KGgoAAAANSUhEUgAAALAAAABZCAIAAAARnjlDAAANz0lEQVR4Ae1ce0xcRRefmGjSpNoH2FraFAgxgoSYakMLLKiItKH1EQivKrSGRNst5bGEomlDfVSjEVpRgxsRtZhU6raYsgQfgTYQpbUNpaVuTe0DsjZSwrL37uPufe299yM9n+O9u7ysLNs1M380M3POnHvmd347c+7MpUghhSCgQgCp6qRKEFAIIQgJNAgQQmjgIA1CCMIBDQKEEBo4SIMQgnBAgwAhhAYO0iCEIBzQIEAIoYGDNAghCAc0CBBCaOAgDUIIwgENAoQQGjhIgxCCcECDACGEBg7SIIQgHNAgQAihgYM0CCEIBzQIEEJo4CANQgjCAQ0ChBAaOEiDEIJwQIMAIYQGDtIghCAc0CBACKGBgzQIIQgHNAgQQmjgIA1CCMIBDQLBIYQkSXa73XG7haZpzSRIY+4QCA4haJpG/6KsW7eO5/m5A4FY+huBoBFi/fr1SUlJycnJaWlpmBvJfxUQJf1VIiIisA5CyGAwSJL09yRIbe4QCA4hFEURBIFhGLvdnpSUBMFOSEgYHR0VbhWGYUDB4/G4XC6Konp6eioqKkDznXfemTsEiCUNAkEjBHhB0/SSJUsgzPn5+aIoarzTNmiajo+PRwg1NTVpJaQ1ZwgEmRAnTpzAe8Hbb789/bRkWc7Ly0MImUym6TWJ9LYRCCYhZFnev38/JsTAwMCM06isrEQIXblyZUZNonB7CASTECzLZmdnAyHS0tJsNpvPHKxWq9lsVuePlZWV4eHhTqfTR5M05wqBYBKCpulVq1YBIcrKynwSCFEUs7KyEEIejwdmy/O8wWBISUnBPXOFArGDEQgmIdra2vB+YTQasU9Q+fnnnxFCaWlpeIXgeT4vL6+goAATwuVyXb9+fd++fT09PQ6HA1vgOG5kZKS9vb20tLSxsfHkyZOCIGDpNBWGYcbHxzs6Onbt2tXQ0HDixAmO46bR/++JgkYIWZbLysowIXp6etTgyrJsMBgQQrW1tep+URS9Xi/00DRtNBqXL18ORtauXWuxWCbM2u12vV6P+0Gan58/fWjdbrfZbM7Pz1+xYgX2CiFUUFBgt9vVPvy360EjBMuyiYmJAH1YWJjFYvnzzz9HRkYuXrzY3t6+Z88eEPX29k4VgC+//BIhtGfPnh9++GH16tUIoaysrO7u7szMzMjIyKKioqNHj46NjZWXl4OpgwcPyrI8qTW73X7w4EFQMxgMbW1tNputtbUVxlZWVvpsZ5Ma+W90Bo0QN27cgABM829MTAzeHXzgZln2+eef37BhA3+rpKamgp0HHnggPT3d5XJh/dOnT4Noy5YtLMviflwZHx+Hw7E1a9YMDQ3BDsVx3ObNm2Hghg0b1AbxwBkrsJ5NxcIZhwdFIWiE+PzzzzEV4MAajquTk5PDwsJAVFxcPNVP88yZMwihAwcOKIoyPj6ekJCArf3xxx9qKC9fvgwinU7nH1eKomJiYkDBYrHggRRFLV68GPoNBoPb7caiGSuiKNbU1FRXV5eWlj799NOvvvrqjEPuHIXgEEKW5VdeeQWHsLu7Gw6qBUHgOM7pdGZmZiKEPvvss6mQeuutt5YsWQIh/Omnn7CpM2fO+Aw5fPgwSHNzcxmGUUsZhsFuGAwGnJ0oimK329esWYMQio2NbW1tVY+asS4Igu5Wgef++OOPMw65cxSCQwiWZR977DHAKzo62idOsizr9fpFixYNDQ2pkbp06VJXV5fX65Vl2Wg01tXVwYby3nvvganCwkL/FaWqqgqkpaWlPnekJpMJRAih06dPq58ly7LFYjl27BhFUWqiqHWmqfM8DyvTypUrfWY3zag7QRQcQthsNhyJoqIiH8QZhklKSsrKylInEAzDlJSUJCQkjI2NKYoiyzJs9qIo5uTkgLX6+nofTCVJevzxx0Ha0tKi3s49Hs8LL7wAomeeecaHKz52bqMJe2J2dvYs33hv4xGBGBIcQnz77beYEP4nEAzDrF27tqysTE2Uvr6+u+++e+/eveqgKoridrsjIyPB2qlTp3wwGh0dXbBgAUJowYIFIyMjailFUdHR0TBwzq9PRVHcunUrvASpH3rn14NACFmWd+/ejQkxODjoD5Pb7Va/EUiSpNfrly1bps77YNS5c+fAVGxsrH/q19zcDNLMzEz1eqMoysmTJ7EP3333nb8P/6bH5XJFRUVNpCD/NP/4Nw+dk7FBIATLshkZGRCMxMTE2Wyx/f39y5cvf/nll/2X34aGBjBVUFDgk0DwPL9t2zaQ4qtUj8cDVFPfq/m/fUwKrtvtbmtrczqdcMbFsuzAwEBXV9fQ0JCPYxcuXIDn3rhxA0yxLGu1Wi9fvuyjOemDgtgZBELQNH3fffcBXhUVFep9YVIgeJ5/7rnnEEL+6bogCEVFRWDqww8/9BlOUdTKlStBChekDMM8+uijeXl5kiR9+umnIIqOjp7mtszr9UJ6QdN0cnIyQmj16tVffPFFf39/bGysTqeDLam5uVkd6QMHDiCE1q1bJwiCLMtWq3XLli3LbpX6+voZp+wzkflsBoEQ3d3dEAmE0LFjx6afLcuy1dXVCKGcnBz/tcTtdsfFxSGE7rnnnl9//dXH1Ndffw0Peuqpp0B0/PhxhBBkLfhlNSEhYSpCeL3epqamXbt2ORyOoqKi6upqh8MBNletWmU0Gj0ejyAIGzduDA8Px+8poigCg3fs2CFJ0qlTpx566KHOzk744islJcV/a/PxPIjN+SbEREq4b98+TIjff/99qslP5GVDQ0PwAQRC6PDhw/6a169fB1MZGRk+KIuiiBePuro6RVHgbiwqKmp0dBSy0UceeQQhtHjx4km3DJ7nS0pKEEIvvfQSnINZLJbBwUF4otlsxv7AtUt5eTn89MfHx+FQq6+vr7Gx8a677hoYGOA4DpLfnTt3wpLj9XqHh4fNZvO1a9fm/B0H+/ZPK/NECIfDMTw83NfX980338CvByEUFxdnMpnsdjtFUTabjbpVzp8/bzKZ6uvra2pqYmNjAf3169erLzPxJPFx5xtvvOGfQBQXF8PwwcFB+K0jhBoaGrBma2srKJSUlKj5xPM8RVG5ubnwQe/EIdXx48dzc3N5nv/4448RQuHh4erlCnLkjRs3QnbS29sLZjdv3rx06VLwXBTFwsJCvV4PqxHHcbt3746MjAwPD0cI6fV6n5wXz3GeK/NBCI7jnn32WcDo9v6tra3FUcQAqa8bJv2oDr/cvv/++9u3b4e7U3UgWZY1Go3gUlVV1VdfffXJJ5/s3LkzPT39/vvvj46ONhqNoC8IAsuykiQVFhbCFSj2RxTFTZs2IYSKi4sh2aytrQWbTz75ZF1dndVqBWWv1wsVWZYrKirS09MZhnE6nXCvlpqaqn6xwtOc58p8EMJms3300UcGg6GqqqqysrLKr4DIr/v/HeXl5deuXfPHRZIkyN02bdo06ZovSdKbb74J+0JiYmJjY6OaDWDQ7XafO3du+/btOp1u4cKFkZGRE9aqqqrMZjNN0/hTDFDmOA6OLo4cOYL9GR4eXrRoEUJo//79kiSJoghHYdXV1du2bVu4cGFERER9fb065Zw4xywsLIyPj7906RJ8gP7ggw/eIZ8GzgchGFVxOp1ev8LzvF+fpgOj71MRRZGmafVq76MgSZLb7bbZbA6Hwye6ak2e510u182bN2madrlcUxm8cuUKJLBWqxUPx3clbW1tiqJQFAXLQ3NzsyiKXV1dCKF7770XEhdRFGGy5eXlUVFRcKwiy/Jrr72GEOrs7MRmg1WZD0IEa25z/tyWlpaJsCUmJuIcUJKkHTt2IIRefPFFWPAh/UQIjY+PK4ri8XggE2pvb1cUpbq6Ojs7W5ZlQRA8Hg+cugqCAJd5V69enXOf/6lBQojZIiaKIrwAGwwGnED89ttvDz/8cFhY2NmzZ8EQ5LlxcXHAD5ZlYcHo7e2VJCkmJkb9egJD4AU4JydHva3M1q251iOEmC2iHMfhPzKDje/8+fMZGRlhYWFHjhyBF06v11tTU4MQ2rp1K9jFV2gXLlw4dOhQSkqKTx4DX/rExcX19/fP1pVA6hFCzBbds2fPwm997969S5cu1el0sH10d3fjk0eO45544gn1FQYciUZERERGRsbHx3/wwQfqVIbn+ZqamtTU1Om/95yti3OhRwgxWxTfffddhJBOp3M6nZ2dnWazeWxszD+QV69evXjxIt5T4EDs5s2b7e3tPp9WwIdVOp0O1oyjR492dHTM1puA6RFCzApaSZLgb4pef/11dbBnNXgyJa/XW1dXt2LFCoqiRFEUBMFgMHz//feT6c5rHyHErODmOA7+KPnQoUOzGjCtkizLLS0taWlpqX8V+Fzvl19+mXbcfAgJIWZAWZKkzs7OpqYmSCBMJlNHR4fPRzozmPATi6KYmpqapi06nQ6/zfqNmL8OQogZsOY4Dv+9IXBC/deFMwyeWgz/DYbPv1Orz5+EEGIGrCe+7/LcKvSt4nQ64YBhhmEhKyaECNnQBcZxQojA4BqyVgkhQjZ0gXGcECIwuIasVUKIkA1dYBwnhAgMriFrlRAiZEMXGMcJIQKDa8haJYQI2dAFxnFCiMDgGrJWCSFCNnSBcZwQIjC4hqxVQoiQDV1gHCeECAyuIWuVECJkQxcYxwkhAoNryFolhAjZ0AXGcUKIwOAaslYJIUI2dIFxnBAiMLiGrFVCiJANXWAcJ4QIDK4ha5UQImRDFxjH/wc416ff/8XGVQAAAABJRU5ErkJggg==;" vertex="1" parent="1">
          <mxGeometry x="977.06" y="375.25" width="97.89" height="49.5" as="geometry" />
        </mxCell>
        <mxCell id="IJVGp-ggUPbxEL1rCusj-8" value="" style="endArrow=classic;html=1;rounded=0;" edge="1" parent="1">
          <mxGeometry width="50" height="50" relative="1" as="geometry">
            <mxPoint x="720" y="760" as="sourcePoint" />
            <mxPoint x="720" y="890" as="targetPoint" />
          </mxGeometry>
        </mxCell>
        <mxCell id="IJVGp-ggUPbxEL1rCusj-9" value="&lt;font face=&quot;Times New Roman&quot; style=&quot;font-size: 24px;&quot;&gt;Dec&lt;/font&gt;" style="edgeLabel;html=1;align=center;verticalAlign=middle;resizable=0;points=[];" vertex="1" connectable="0" parent="IJVGp-ggUPbxEL1rCusj-8">
          <mxGeometry x="-0.0452" y="-3" relative="1" as="geometry">
            <mxPoint x="23" as="offset" />
          </mxGeometry>
        </mxCell>
      </root>
    </mxGraphModel>
  </diagram>
</mxfile>
